<?xml version="1.0" standalone="no"?>
<!DOCTYPE svg PUBLIC "-//W3C//DTD SVG 20010904//EN"
 "http://www.w3.org/TR/2001/REC-SVG-20010904/DTD/svg10.dtd">
<svg version="1.0" xmlns="http://www.w3.org/2000/svg"
 width="1100.000000pt" height="684.000000pt" viewBox="0 0 1100.000000 684.000000"
 preserveAspectRatio="xMidYMid meet">

<g transform="translate(0.000000,684.000000) scale(0.100000,-0.100000)"
fill="#000000" stroke="none">
<path d="M0 3420 l0 -3420 1026 0 1026 0 -20 32 c-18 30 -48 88 -131 257 -14
29 -34 59 -43 65 -10 6 -18 15 -18 19 0 16 -68 77 -85 77 -9 0 -13 5 -10 10 3
6 1 10 -5 10 -19 0 -111 74 -208 166 -76 73 -94 96 -99 126 -5 33 -3 39 20 49
30 14 58 -3 145 -86 47 -44 139 -106 182 -121 8 -3 23 -10 32 -15 28 -14 53
-11 73 11 20 22 16 48 -17 100 -59 93 -87 142 -94 162 -3 12 -15 35 -25 52
-11 17 -19 39 -19 49 0 9 -4 17 -10 17 -5 0 -10 4 -10 9 0 5 -16 37 -35 71
-19 34 -35 70 -35 81 0 10 -4 19 -10 19 -32 0 10 77 44 81 37 4 75 -28 76 -63
0 -9 4 -18 8 -20 12 -5 62 -112 62 -132 0 -9 4 -14 10 -11 5 3 10 -1 10 -10 0
-15 32 -70 50 -85 3 -3 14 -24 25 -47 11 -24 23 -43 28 -43 4 0 7 -6 7 -13 0
-23 56 -77 80 -77 20 0 22 3 15 38 -4 20 -11 38 -16 40 -5 2 -9 14 -9 27 0 13
-4 27 -10 30 -5 3 -10 15 -10 26 0 10 -4 19 -10 19 -5 0 -10 8 -10 18 0 10 -5
23 -11 29 -6 6 -12 17 -13 24 -2 8 -8 27 -14 42 -7 16 -12 37 -12 47 0 10 -4
22 -10 25 -5 3 -10 17 -10 31 0 13 -4 24 -10 24 -5 0 -10 7 -10 15 0 9 -11 33
-25 55 -14 22 -25 46 -25 54 0 8 -4 18 -10 21 -14 9 -13 78 2 93 22 22 69 14
94 -16 13 -15 24 -35 24 -44 0 -10 4 -18 9 -18 5 0 12 -11 15 -25 4 -14 11
-25 16 -25 6 0 10 -9 10 -19 0 -11 5 -23 10 -26 6 -3 10 -17 10 -31 0 -13 5
-24 10 -24 6 0 10 -7 10 -16 0 -8 9 -32 20 -52 35 -68 50 -105 50 -129 0 -12
5 -23 10 -23 6 0 10 -11 10 -24 0 -14 5 -28 10 -31 6 -3 10 -15 10 -26 0 -10
5 -19 11 -19 5 0 8 -4 5 -9 -7 -10 16 -21 44 -21 11 0 29 10 41 23 19 20 20
29 15 117 -10 168 -38 335 -59 356 -10 10 -9 106 2 100 5 -3 11 3 14 14 7 28
49 26 78 -4 14 -13 33 -48 43 -78 10 -29 23 -57 27 -63 5 -5 9 -33 9 -63 0
-33 4 -51 10 -47 6 4 10 -8 10 -29 0 -19 4 -37 8 -40 5 -3 12 -53 15 -110 6
-112 37 -264 68 -333 11 -24 19 -46 19 -49 0 -16 53 -54 76 -54 13 0 24 -4 24
-10 0 -5 9 -10 19 -10 11 0 23 -5 26 -11 9 -14 85 -2 106 17 8 8 20 14 26 14
5 0 16 11 23 25 7 13 17 22 22 19 5 -3 12 3 15 15 3 12 8 21 12 21 4 0 15 16
25 35 11 19 23 35 28 35 4 0 8 7 8 15 0 8 7 15 16 15 8 0 12 5 9 10 -3 6 1 10
10 10 15 0 64 27 75 41 10 14 93 30 119 24 58 -15 83 -69 37 -81 -14 -3 -27
-12 -30 -20 -3 -8 -11 -14 -18 -14 -7 -1 -22 -13 -33 -27 -11 -14 -29 -35 -41
-47 -39 -40 -104 -133 -104 -149 0 -9 -5 -19 -10 -22 -6 -3 -10 -19 -10 -36 0
-16 -4 -29 -8 -29 -4 0 -14 -20 -21 -45 -12 -41 -40 -85 -54 -85 -12 0 -102
-102 -145 -163 -23 -33 -42 -71 -42 -84 l0 -23 764 0 764 0 7 63 c3 34 8 167
11 295 l5 232 -43 47 c-77 84 -178 173 -195 173 -7 0 -13 5 -13 10 0 6 -7 10
-15 10 -8 0 -15 5 -15 10 0 6 -6 10 -13 10 -15 0 -87 69 -87 84 0 3 -16 30
-35 60 -19 30 -35 57 -35 60 0 13 -49 61 -110 109 -36 28 -67 54 -70 57 -20
23 -81 60 -98 60 -12 0 -22 4 -22 9 0 5 -9 11 -20 14 -44 11 -33 71 17 95 32
14 169 16 178 2 3 -6 19 -10 35 -10 16 0 32 -4 35 -10 3 -5 14 -10 23 -10 15
0 52 -33 139 -125 62 -66 190 -107 225 -71 9 9 23 16 31 16 9 0 17 3 19 8 2 4
17 14 33 24 84 46 122 252 91 489 -33 259 2 599 62 599 10 0 23 5 29 11 14 14
48 -3 65 -34 9 -14 15 -88 20 -212 9 -245 18 -365 29 -365 5 0 9 -15 9 -33 0
-20 8 -41 18 -50 20 -19 67 -23 77 -7 12 20 37 127 46 200 17 130 21 150 30
144 5 -3 9 15 9 40 0 25 4 46 9 46 5 0 11 24 14 52 5 55 33 160 57 215 12 27
22 34 58 39 63 9 85 -13 78 -81 -12 -110 -18 -145 -27 -145 -5 0 -9 -18 -9
-39 0 -22 -4 -42 -9 -45 -4 -3 -11 -38 -15 -78 -7 -86 -24 -176 -37 -200 -5
-10 -9 -36 -9 -57 0 -22 -5 -43 -10 -46 -17 -10 -12 -105 5 -112 19 -7 43 21
51 60 4 15 10 27 15 27 5 0 9 11 9 25 0 14 5 25 10 25 6 0 10 13 10 28 0 15 4
32 8 38 20 22 62 138 62 170 0 21 4 33 10 29 6 -4 10 8 10 30 0 20 12 73 26
118 26 79 45 112 58 100 3 -4 6 -1 6 5 0 7 9 12 20 12 17 0 20 7 21 48 0 26 5
117 10 202 18 271 21 472 10 483 -6 6 -11 20 -11 32 0 11 -13 34 -28 52 -15
17 -40 47 -57 67 -16 20 -36 36 -42 36 -7 0 -12 4 -10 8 2 9 -66 82 -77 82 -3
0 -20 13 -37 30 -17 16 -40 32 -50 35 -11 4 -19 11 -19 16 0 5 -7 9 -15 9 -8
0 -15 3 -15 8 0 4 -18 16 -40 26 -22 11 -40 23 -40 28 0 4 -7 8 -15 8 -8 0
-15 5 -15 10 0 6 -7 10 -16 10 -20 0 -102 87 -110 118 -4 12 -10 22 -15 22 -5
0 -9 9 -9 20 0 11 -4 20 -10 20 -5 0 -10 9 -10 20 0 11 -4 20 -9 20 -5 0 -12
11 -15 25 -4 14 -11 25 -16 25 -6 0 -10 7 -10 15 0 15 -13 33 -63 88 -16 17
-34 38 -40 46 -7 9 -43 41 -82 71 -38 30 -71 58 -73 62 -2 5 -8 8 -14 8 -5 0
-29 20 -54 45 -24 25 -50 45 -59 45 -8 0 -15 5 -15 10 0 6 -9 10 -19 10 -11 0
-23 5 -26 10 -3 6 -19 10 -34 10 -45 0 -95 40 -99 78 -4 42 28 88 76 108 58
24 199 30 246 10 21 -9 47 -16 57 -16 11 0 19 -4 19 -10 0 -5 16 -10 35 -10
19 0 35 -4 35 -10 0 -5 11 -10 24 -10 12 0 35 -11 50 -25 14 -13 26 -21 26
-18 0 3 14 -8 30 -26 17 -17 35 -31 40 -31 6 0 10 -5 10 -12 0 -16 130 -138
146 -138 7 0 14 -3 16 -7 7 -16 86 -52 129 -59 24 -4 52 -11 62 -16 15 -8 81
13 97 32 3 3 28 16 55 30 76 37 125 73 125 93 0 9 5 17 10 17 6 0 10 7 10 15
0 8 4 15 9 15 5 0 11 12 14 28 4 15 16 70 27 122 32 149 21 511 -22 708 -8 39
-8 68 1 120 6 37 13 142 15 233 2 96 8 175 15 187 6 11 11 41 11 66 0 25 5 46
10 46 6 0 10 11 10 25 0 25 39 75 59 75 5 0 11 5 13 12 3 7 25 11 57 11 58 -1
69 -10 101 -81 18 -40 20 -67 20 -327 0 -179 4 -286 10 -290 6 -4 10 -53 10
-115 0 -62 4 -111 10 -115 6 -3 10 -19 10 -35 0 -34 30 -107 57 -137 37 -42
123 -18 123 34 0 9 4 30 9 47 21 69 41 184 41 233 0 28 4 55 10 58 6 3 10 31
10 61 0 30 4 54 9 54 5 0 11 15 14 33 2 17 12 57 21 87 9 30 20 76 23 103 3
26 9 47 14 47 5 0 9 24 9 54 0 30 4 58 10 61 6 3 10 19 10 35 0 16 4 32 10 35
6 3 10 16 10 27 0 30 32 128 42 128 4 0 8 6 8 14 0 18 52 56 77 56 10 0 25 6
32 13 11 10 14 10 18 0 3 -7 17 -13 32 -13 14 0 34 -8 43 -19 22 -26 41 -88
33 -109 -3 -9 -9 -35 -12 -57 -3 -22 -9 -44 -14 -49 -5 -6 -9 -29 -9 -53 0
-24 -4 -43 -10 -43 -5 0 -10 -18 -10 -40 0 -22 -4 -40 -10 -40 -5 0 -10 -11
-10 -24 0 -14 -5 -37 -11 -53 -12 -32 -39 -245 -39 -310 0 -24 -4 -43 -10 -43
-5 0 -10 -15 -10 -34 0 -19 -4 -38 -10 -41 -6 -3 -10 -18 -10 -33 0 -15 -7
-49 -15 -76 -8 -27 -15 -63 -15 -81 0 -17 -5 -36 -11 -42 -5 -5 -9 -37 -7 -69
2 -47 7 -59 20 -62 19 -4 48 19 48 37 0 6 5 11 10 11 6 0 10 9 10 20 0 11 4
28 9 38 5 9 17 35 26 57 9 22 20 48 25 57 6 10 10 29 10 43 0 14 5 25 10 25 6
0 10 18 10 40 0 22 5 40 10 40 6 0 10 6 10 14 0 7 11 34 25 60 14 26 25 56 25
67 0 11 5 17 10 14 6 -4 10 7 10 26 0 18 4 46 9 63 18 60 53 201 58 234 3 17
9 32 14 32 5 0 9 18 9 40 0 22 5 40 10 40 6 0 10 9 10 19 0 32 60 71 109 71
61 0 94 -23 129 -89 14 -27 16 -71 3 -71 -5 0 -11 -17 -14 -37 -8 -58 -27
-136 -37 -155 -6 -10 -10 -29 -10 -43 0 -14 -4 -25 -10 -25 -5 0 -10 -16 -10
-35 0 -19 -4 -35 -10 -35 -5 0 -10 -13 -10 -29 0 -17 -4 -32 -8 -35 -5 -3 -17
-53 -28 -111 -10 -58 -22 -105 -26 -105 -4 0 -8 -18 -8 -40 0 -22 -4 -40 -10
-40 -5 0 -10 -7 -10 -15 0 -15 -3 -24 -34 -82 -9 -17 -16 -41 -16 -52 0 -12
-4 -21 -10 -21 -5 0 -10 -13 -10 -30 0 -16 -4 -30 -10 -30 -5 0 -10 -13 -10
-30 0 -16 -4 -30 -9 -30 -11 0 -22 -55 -15 -75 4 -8 12 -15 20 -15 8 0 14 -4
14 -10 0 -5 20 -10 45 -10 25 0 45 5 45 10 0 6 7 10 15 10 8 0 25 9 37 19 70
60 84 71 90 71 10 0 158 148 158 157 0 5 12 22 26 38 47 56 59 71 74 97 26 46
101 128 131 143 50 26 129 12 129 -24 0 -6 5 -11 10 -11 14 0 12 -91 -3 -123
-6 -15 -15 -27 -19 -27 -5 0 -8 -9 -8 -20 0 -11 -3 -20 -7 -20 -5 0 -16 -20
-26 -45 -11 -25 -23 -45 -28 -45 -5 0 -9 -7 -9 -15 0 -8 -4 -15 -10 -15 -5 0
-10 -4 -10 -10 0 -10 -27 -45 -67 -86 -13 -13 -23 -27 -23 -32 0 -5 -7 -15
-15 -22 -9 -7 -13 -15 -10 -18 2 -3 -7 -15 -20 -28 -14 -13 -25 -28 -25 -34 0
-5 -4 -10 -10 -10 -5 0 -10 -7 -10 -15 0 -8 -5 -15 -10 -15 -10 0 -80 -65 -80
-74 0 -2 -30 -36 -67 -74 -84 -85 -113 -119 -113 -132 0 -6 -4 -10 -10 -10 -5
0 -10 -9 -10 -20 0 -11 -4 -20 -9 -20 -5 0 -12 -11 -15 -25 -4 -14 -11 -25
-16 -25 -6 0 -10 -9 -10 -20 0 -11 -4 -20 -10 -20 -5 0 -10 -11 -10 -25 0 -14
-4 -25 -10 -25 -5 0 -10 -17 -10 -37 0 -20 -4 -50 -9 -67 -16 -52 -34 -129
-39 -163 -2 -18 -8 -33 -13 -33 -5 0 -9 -18 -9 -41 0 -24 -4 -38 -10 -34 -6 4
-10 -8 -10 -29 0 -19 -5 -38 -10 -41 -6 -3 -10 -13 -10 -21 0 -8 -11 -37 -25
-66 -14 -28 -25 -60 -25 -70 0 -10 -3 -18 -8 -18 -9 0 -25 -36 -48 -110 -9
-30 -21 -63 -25 -72 -5 -10 -9 -29 -9 -43 0 -14 -4 -25 -10 -25 -5 0 -10 -7
-10 -15 0 -8 -4 -23 -9 -33 -23 -46 -41 -95 -41 -112 0 -10 -4 -22 -10 -25 -6
-4 -10 -90 -10 -226 0 -144 -3 -218 -10 -214 -7 4 -10 -60 -10 -183 0 -168 2
-191 17 -196 9 -4 21 -2 27 4 30 30 70 -7 96 -90 8 -25 20 -56 27 -70 7 -14
13 -35 13 -47 0 -12 5 -25 10 -28 6 -3 10 -17 10 -31 0 -24 2 -30 35 -94 10
-19 22 -42 25 -50 4 -8 12 -25 18 -37 7 -13 12 -32 12 -43 0 -11 4 -20 9 -20
5 0 12 -11 15 -25 9 -34 41 -65 67 -65 19 0 20 4 15 43 -10 81 -18 117 -27
123 -5 3 -9 18 -9 34 0 16 -4 32 -10 35 -5 3 -10 21 -10 40 0 19 -4 37 -10 40
-6 3 -10 30 -10 58 -1 29 -7 63 -15 77 -8 14 -14 36 -15 51 0 14 -4 29 -8 35
-5 5 -13 27 -19 49 -6 22 -17 58 -23 81 -11 35 -10 45 5 68 26 39 66 35 104
-11 18 -22 31 -49 31 -65 0 -15 5 -30 10 -33 6 -3 10 -17 10 -30 0 -13 5 -27
10 -30 6 -3 10 -18 10 -33 0 -28 31 -126 43 -139 4 -3 7 -17 7 -29 0 -13 5
-26 10 -29 6 -3 10 -23 10 -43 1 -40 20 -127 41 -185 13 -36 15 -37 62 -37 29
0 46 4 42 10 -3 6 -2 10 3 10 6 0 13 24 17 53 10 71 10 410 1 472 -11 68 15
118 62 123 18 2 32 -1 32 -7 0 -6 7 -11 15 -11 11 0 15 -11 15 -41 0 -22 4
-38 9 -35 9 6 26 -90 37 -205 4 -36 8 -158 9 -270 3 -285 17 -367 72 -418 56
-53 190 -100 207 -72 3 4 19 11 35 14 27 6 89 60 163 142 39 44 55 55 77 55
30 0 40 26 27 71 -6 21 -15 41 -19 45 -4 4 -7 22 -7 41 0 18 -4 33 -10 33 -5
0 -10 15 -10 34 0 19 -9 56 -21 83 -32 74 -49 126 -49 151 0 12 -4 22 -10 22
-5 0 -10 20 -10 44 0 24 -4 46 -8 48 -4 2 -18 59 -30 128 -31 170 -33 180 -43
180 -5 0 -9 7 -9 16 0 14 -65 116 -92 145 -50 53 -146 177 -169 217 -14 26
-38 61 -53 76 -14 16 -26 35 -26 42 0 8 -4 14 -10 14 -5 0 -10 7 -10 15 0 8
-4 23 -9 33 -40 78 -61 127 -61 146 0 56 87 79 133 35 28 -27 97 -132 97 -149
0 -5 5 -10 10 -10 6 0 10 -5 10 -10 0 -6 5 -16 10 -23 20 -24 52 -62 69 -82 9
-11 38 -38 66 -60 27 -22 59 -48 70 -58 26 -23 103 -20 119 5 10 17 -10 101
-35 150 -5 10 -9 31 -9 48 0 16 -4 30 -10 30 -5 0 -10 14 -10 30 0 17 -4 38
-9 48 -8 15 -44 194 -58 285 -3 20 -9 37 -13 37 -9 0 -17 60 -26 176 -5 70 -5
72 24 93 43 30 122 27 122 -5 0 -8 4 -14 9 -14 4 0 16 -30 25 -67 9 -38 21
-84 26 -104 6 -20 10 -59 10 -87 0 -28 4 -54 10 -57 6 -3 10 -20 10 -36 0 -16
11 -57 25 -91 14 -34 25 -72 25 -85 0 -14 4 -21 10 -18 6 4 10 -10 10 -34 0
-22 5 -43 10 -46 6 -3 10 -18 10 -33 1 -33 29 -92 51 -105 9 -6 23 -8 32 -4
12 5 14 21 10 94 -3 48 -9 92 -14 98 -5 5 -9 35 -9 68 0 36 -4 56 -10 52 -6
-4 -10 39 -10 122 0 71 -4 133 -9 138 -5 6 -11 28 -14 50 -17 123 -32 205 -39
205 -18 0 -7 82 14 110 18 25 29 30 62 30 47 0 96 -35 96 -68 0 -11 4 -24 10
-27 5 -3 10 -28 10 -55 0 -27 4 -51 9 -54 5 -3 11 -29 14 -58 9 -91 31 -223
38 -228 8 -6 17 -81 28 -235 14 -178 21 -195 85 -195 35 0 43 4 59 31 9 17 17
39 17 50 0 10 4 19 8 19 7 0 23 73 44 205 6 33 12 125 15 205 2 80 9 149 14
155 5 5 9 35 9 67 0 32 4 58 9 58 5 0 13 9 16 21 6 17 14 20 53 17 41 -3 49
-7 74 -43 24 -35 27 -49 28 -120 0 -55 3 -75 10 -65 7 11 10 3 10 -28 0 -26
-4 -41 -10 -37 -7 4 -10 -54 -10 -167 0 -96 -4 -178 -9 -183 -30 -32 -48 -426
-24 -530 21 -92 39 -114 135 -178 54 -34 63 -37 133 -37 43 0 75 4 75 10 0 6
6 10 14 10 18 0 76 32 76 43 0 4 6 7 13 7 8 0 32 20 55 45 22 25 45 45 50 45
4 0 17 8 28 18 38 35 167 72 253 72 99 0 160 -35 161 -91 0 -28 -13 -36 -92
-60 -27 -7 -48 -17 -48 -21 0 -4 -6 -8 -14 -8 -7 0 -30 -16 -50 -35 -21 -19
-43 -35 -49 -35 -15 -1 -76 -51 -136 -112 -68 -70 -81 -86 -81 -103 0 -8 -4
-15 -10 -15 -5 0 -10 -5 -10 -11 0 -28 -91 -139 -114 -139 -9 0 -16 -4 -16
-10 0 -5 -7 -10 -16 -10 -9 0 -38 -16 -64 -35 -26 -19 -53 -35 -59 -35 -6 0
-11 -4 -11 -10 0 -5 -7 -10 -15 -10 -8 0 -15 -4 -15 -10 0 -5 -6 -10 -14 -10
-8 0 -23 -11 -34 -25 -11 -14 -22 -25 -25 -25 -15 0 -110 -106 -120 -133 -8
-21 -14 -214 -19 -572 -4 -297 -10 -593 -13 -657 l-6 -118 1415 0 1416 0 0
3420 0 3420 -5500 0 -5500 0 0 -3420z"/>
<path d="M6067 1744 c-4 -4 -7 -116 -7 -249 l0 -241 62 -37 c63 -37 96 -40
125 -11 15 15 17 54 3 54 -5 0 -10 9 -10 20 0 22 -20 72 -33 81 -4 3 -9 16
-10 27 -1 12 -4 22 -8 22 -3 0 -14 28 -24 63 -10 34 -22 66 -27 72 -4 5 -8 23
-8 41 0 18 -3 34 -8 36 -4 2 -16 31 -28 66 -11 34 -23 59 -27 56z"/>
<path d="M5019 1647 c-29 -74 -32 -82 -36 -102 -2 -11 -8 -24 -13 -29 -6 -6
-10 -24 -10 -41 0 -25 6 -35 26 -44 15 -6 35 -9 45 -6 17 6 19 18 19 136 0 71
-3 129 -7 129 -5 0 -15 -19 -24 -43z"/>
<path d="M5027 1058 c-5 -52 -44 -206 -57 -230 -6 -10 -10 -25 -10 -33 0 -8
-4 -23 -9 -33 -39 -74 -61 -127 -61 -142 0 -11 -4 -22 -10 -25 -5 -3 -10 -17
-10 -31 0 -13 -4 -33 -10 -44 -5 -11 -14 -29 -20 -39 -16 -33 -28 -138 -35
-313 l-7 -168 137 0 136 0 -4 452 c-3 249 -7 467 -9 483 -3 17 -6 60 -6 98 -2
75 -17 90 -25 25z"/>
<path d="M6085 1040 c-8 -14 -8 -259 1 -717 l7 -323 189 0 188 0 0 82 c0 45
-4 95 -9 112 -5 17 -18 59 -28 93 -9 34 -21 59 -25 57 -5 -3 -8 6 -8 20 0 14
-4 26 -10 26 -5 0 -10 7 -10 15 0 8 -4 23 -9 33 -5 9 -17 36 -26 60 -10 23
-22 42 -27 42 -4 0 -8 14 -8 30 0 17 -4 30 -8 30 -4 0 -16 24 -26 53 -11 28
-23 56 -27 62 -5 5 -9 21 -9 36 0 15 -4 31 -10 34 -5 3 -10 21 -10 40 0 19 -4
37 -10 40 -5 3 -10 15 -10 26 0 11 -11 32 -25 47 -14 15 -25 32 -25 39 0 7 -5
13 -11 13 -5 0 -8 3 -6 8 6 13 -40 54 -48 42z"/>
<path d="M7428 978 c-16 -18 -28 -38 -28 -45 0 -7 -4 -13 -8 -13 -9 0 -52 -89
-52 -108 0 -7 -4 -12 -9 -12 -5 0 -14 -13 -19 -28 -6 -19 -37 -48 -88 -84 -82
-57 -165 -137 -210 -199 -30 -43 -33 -100 -14 -264 7 -55 14 -128 17 -162 l5
-63 193 0 193 0 6 67 c4 38 9 122 12 188 3 66 10 124 15 129 5 6 9 40 9 76 0
36 7 121 15 188 9 74 14 169 11 240 -2 64 -4 118 -5 120 -4 9 -20 -3 -43 -30z"/>
<path d="M7810 63 c-24 -9 -50 -35 -50 -50 0 -10 27 -13 125 -13 69 0 125 4
125 8 0 8 -33 24 -108 53 -25 10 -68 11 -92 2z"/>
</g>
</svg>
